<?xml version="1.0" encoding="UTF-8"?>
<svg version="1.1" xmlns="http://www.w3.org/2000/svg" width="2504" height="752">
<path d="M0 0 C43.40502832 1.25959322 43.40502832 1.25959322 86.8125 0.5 C88.0603125 0.45230469 89.308125 0.40460937 90.59375 0.35546875 C93.54191011 0.24207798 96.48976156 0.12378263 99.4375 0 C98.1241094 6.45207684 96.35700641 12.50406686 94.12109375 18.69140625 C93.79307266 19.6128392 93.46505157 20.53427216 93.12709045 21.48362732 C92.04793657 24.51168373 90.96142501 27.53704563 89.875 30.5625 C89.10881065 32.70878299 88.34319592 34.8552712 87.578125 37.00195312 C85.98903997 41.45929391 84.3974917 45.91574356 82.80419922 50.37158203 C79.51078294 59.58787491 76.24751136 68.81480894 72.98406982 78.04174805 C71.57771293 82.01698021 70.16962107 85.99159689 68.76153564 89.96621704 C65.89697506 98.05207911 63.03431625 106.13861012 60.17471313 114.22622681 C58.71622426 118.35093356 57.25705636 122.47539998 55.79785156 126.59985352 C55.12678445 128.49719726 54.45602043 130.39464825 53.78564453 132.29223633 C46.74480613 152.22173077 39.58760681 172.10951712 32.4375 192 C31.47174545 191.96241577 30.50599091 191.92483154 29.51097107 191.8861084 C20.20808778 191.52507261 10.90492123 191.17223442 1.60145473 190.82654572 C-3.17641631 190.64877425 -7.95416244 190.46854439 -12.73168945 190.28173828 C-32.86040279 189.49669997 -52.97553075 188.85624477 -73.12109375 188.8046875 C-73.92961855 188.80027145 -74.73814335 188.79585541 -75.5711689 188.79130554 C-93.55134015 188.71052558 -109.23264035 191.35135379 -125.5625 199 C-126.58085938 199.474375 -127.59921875 199.94875 -128.6484375 200.4375 C-136.43993761 204.36526992 -143.39063296 209.22786784 -146.75 217.5625 C-147.65271365 220.96819242 -147.52139549 222.16441804 -146.625 225.75 C-141.29764701 234.14461684 -132.98971987 237.16723868 -123.56396484 239.49316406 C-112.23249545 241.98970003 -100.931468 243.13033891 -89.33935547 243.20532227 C-88.37229172 243.21522186 -87.40522797 243.22512146 -86.40885925 243.23532104 C-83.24915925 243.2666167 -80.08944427 243.29156559 -76.9296875 243.31640625 C-74.72437169 243.33700344 -72.51905959 243.35800059 -70.31375122 243.37937927 C-64.53693661 243.43431455 -58.76008808 243.48384856 -52.98321533 243.53222656 C-47.07732153 243.58265128 -41.1714764 243.63822739 -35.265625 243.69335938 C-23.69795834 243.80059131 -12.13024924 243.9021125 -0.5625 244 C-1.1628163 249.00776713 -2.2235561 253.66100841 -3.74536133 258.47412109 C-4.07835015 259.54984312 -4.07835015 259.54984312 -4.41806602 260.64729691 C-5.15520734 263.02426808 -5.89987654 265.39881045 -6.64453125 267.7734375 C-7.17247063 269.47090721 -7.6999096 271.16853263 -8.22688293 272.86630249 C-9.35185878 276.48730018 -10.48006725 280.10726787 -11.61090088 283.72644043 C-13.38104778 289.39186199 -15.14416562 295.05945374 -16.90576172 300.72753906 C-17.50010771 302.6396529 -18.0944681 304.55176226 -18.68884277 306.46386719 C-18.98400284 307.41340271 -19.2791629 308.36293823 -19.58326721 309.34124756 C-20.48354645 312.2364601 -21.38455011 315.13144626 -22.2857666 318.02636719 C-27.73959753 335.5478346 -33.14550127 353.08386286 -38.53466415 370.62531281 C-39.61224384 374.13235026 -40.69056479 377.63915978 -41.76879883 381.14599609 C-43.70089952 387.43039778 -45.6320975 393.71507647 -47.5625 400 C-48.70745941 400.00586624 -49.85241882 400.01173248 -51.03207397 400.01777649 C-61.9434837 400.07556015 -72.85470466 400.14859817 -83.76592064 400.23571491 C-89.37241492 400.28001086 -94.97884328 400.31935049 -100.58544922 400.34643555 C-161.76480623 398.34886269 -161.76480623 398.34886269 -216.5625 421 C-219.0540904 424.7373856 -219.02043285 426.57331583 -218.5625 431 C-215.61013549 436.90472901 -209.47198857 438.90705613 -203.5625 441 C-181.72541177 447.56226784 -158.78164627 448.18212984 -136.14907557 448.06054105 C-131.41756023 448.03559827 -126.68599806 448.02907274 -121.9544313 448.01939213 C-120.99294731 448.01695801 -120.03146333 448.01452388 -119.04084347 448.01201599 C-109.78581711 447.99099949 -100.53187104 448.03744758 -91.27713203 448.10652828 C-90.48657375 448.11227348 -89.69601547 448.11801869 -88.88150087 448.12393799 C-83.9181053 448.16021354 -78.9547313 448.1989294 -73.99136003 448.23837309 C-69.3800801 448.27463444 -64.76878535 448.30892563 -60.15749252 448.34350067 C-52.124329 448.40398884 -44.0911753 448.46566065 -36.05802727 448.52816963 C-24.10730489 448.62115768 -12.15656834 448.71221975 -0.20582848 448.80292967 C19.94026392 448.95589994 40.08634433 449.11039719 60.23241806 449.2658062 C80.22571145 449.42003439 100.21900967 449.57361118 120.21231461 449.72633553 C121.4636592 449.73589483 122.7150038 449.74545413 124.00426794 449.75530311 C129.08653707 449.79412566 134.16880624 449.83294354 139.25107546 449.87175529 C185.51374846 450.22505065 231.77640923 450.579923 278.0390625 450.93579102 C321.42219263 451.26950847 364.80533005 451.60225574 408.18847656 451.93383789 C409.53319902 451.94411597 410.87792149 451.95439408 412.22264395 451.96467222 C418.26107348 452.0108257 424.29950302 452.05697802 430.33793255 452.1031304 C433.01387059 452.12358294 435.68980863 452.14403566 438.36574667 452.16448837 C440.36911805 452.17980041 442.37248943 452.19511209 444.37586082 452.21042374 C487.36820135 452.53901599 530.36053533 452.86846378 573.35286822 453.19805495 C585.84240796 453.29379988 598.33194801 453.38950268 610.82148886 453.48510242 C643.76755431 453.73728786 676.71361625 453.98992246 709.65966797 454.24389648 C710.75565313 454.25234433 711.85163829 454.26079218 712.98083512 454.26949603 C783.13337666 454.810326 853.28566217 455.37383699 923.4375 456 C923.1287614 457.42505792 922.81781706 458.84963808 922.50596237 460.27401733 C922.24658736 461.46406404 922.24658736 461.46406404 921.98197246 462.67815208 C921.2240126 465.91039549 920.20443853 469.02129739 919.13769531 472.1640625 C918.91575752 472.82214401 918.69381973 473.48022552 918.46515656 474.1582489 C917.73642424 476.31536689 917.00108941 478.470169 916.265625 480.625 C915.74587836 482.15896334 915.22653915 483.69306479 914.70758057 485.22729492 C913.32536917 489.3097413 911.93738764 493.39020333 910.54818726 497.47027588 C909.1049817 501.71213246 907.6670926 505.95579073 906.22851562 510.19921875 C902.97182298 519.80185704 899.70605839 529.40139515 896.4375 539 C896.03909912 540.17030762 895.64069824 541.34061523 895.23022461 542.54638672 C892.3520053 551.00012801 889.4682581 559.45195339 886.57499695 567.90055847 C883.70290512 576.28756821 880.84554267 584.67948756 877.99609375 593.07421875 C877.42074387 594.76878708 877.42074387 594.76878708 876.83377075 596.49758911 C875.31369367 600.97493537 873.79364874 605.45229092 872.27587891 609.93041992 C871.23566137 612.99951309 870.19409871 616.06814715 869.15234375 619.13671875 C868.85081894 620.02775803 868.54929413 620.9187973 868.2386322 621.83683777 C866.47664219 627.02284867 864.66350071 632.18846979 862.81837463 637.34553528 C862.58849743 637.98832633 862.35862023 638.63111737 862.12177706 639.29338694 C861.5606312 640.86235807 860.99910503 642.43119317 860.4375 644 C859.67753031 644.00008822 858.91756063 644.00017644 858.13456156 644.00026734 C775.11413217 644.01008193 692.09370506 644.02626815 609.07328796 644.07429504 C607.82662108 644.0750145 606.5799542 644.07573395 605.29550954 644.0764752 C578.18050197 644.09216001 551.06549519 644.10894419 523.950489 644.12685562 C511.31513784 644.13519586 498.67978656 644.14333412 486.04443517 644.1513198 C484.03922026 644.15258825 482.03400536 644.15386227 480.02879046 644.15513652 C437.38155456 644.18216967 394.73433562 644.19322467 352.08709024 644.19579524 C308.13985049 644.19853025 264.19264702 644.21787776 220.24542407 644.25716115 C213.99095472 644.26274438 207.73648522 644.26814411 201.48201561 644.27343178 C200.25144504 644.27447781 199.02087447 644.27552385 197.75301388 644.27660158 C180.60974581 644.29076486 163.46650868 644.29365481 146.32323633 644.28745785 C117.53877029 644.27706225 88.75439367 644.28582212 59.9699707 644.34057617 C58.35143501 644.3436252 58.35143501 644.3436252 56.70020162 644.34673583 C-6.29435927 644.47013857 -69.07443874 645.41340287 -131.96385984 649.31002611 C-152.1364594 650.55680568 -172.31632877 651.15933302 -192.52734375 651.16796875 C-194.39083376 651.17120627 -196.25432355 651.17457186 -198.11781311 651.17805481 C-201.97169583 651.18394604 -205.82555647 651.18590505 -209.67944336 651.18530273 C-213.55807138 651.18522135 -217.4365816 651.19220313 -221.31518555 651.20581055 C-243.81461399 651.28342016 -266.14471646 651.1532069 -288.5625 649 C-289.35381317 648.92429779 -290.14512634 648.84859558 -290.9604187 648.77059937 C-295.09315671 648.35861688 -299.20247081 647.84544929 -303.3125 647.25 C-304.49312012 647.08153564 -305.67374023 646.91307129 -306.89013672 646.73950195 C-335.61567523 642.42471312 -366.33491602 634.77105954 -388.5625 615 C-389.31660156 614.38769531 -390.07070313 613.77539062 -390.84765625 613.14453125 C-411.04630721 596.34119383 -420.2986126 569.33255729 -423.5625 544 C-423.6567627 543.29004883 -423.75102539 542.58009766 -423.84814453 541.84863281 C-432.4173668 468.60401027 -407.10089363 390.66570333 -386.2701416 321.35675049 C-384.62774033 315.8868488 -383.00044515 310.41246161 -381.375 304.9375 C-380.91226685 303.38458252 -380.91226685 303.38458252 -380.44018555 301.80029297 C-378.67236015 295.8417764 -376.95500502 289.87109235 -375.27734375 283.88671875 C-357.26212628 219.6975393 -335.00694257 154.86050203 -294.5625 101 C-294.0989209 100.38092773 -293.6353418 99.76185547 -293.15771484 99.12402344 C-286.76213447 90.64579692 -279.92357134 82.65628431 -272.5625 75 C-271.91394043 74.3188916 -271.26538086 73.6377832 -270.59716797 72.93603516 C-256.38694363 58.08151853 -241.18798074 45.57819854 -223.5625 35 C-222.95116211 34.6292334 -222.33982422 34.2584668 -221.70996094 33.87646484 C-155.42637727 -5.99221042 -74.43610587 -2.05942883 0 0 Z " fill="#E60000" transform="translate(1315.5625,52)"/>
<path d="M0 0 C66.99 0 133.98 0 203 0 C201.87511626 7.87418618 201.87511626 7.87418618 200.70336914 11.47998047 C200.30898399 12.70841675 200.30898399 12.70841675 199.90663147 13.96166992 C199.61904465 14.83799072 199.33145782 15.71431152 199.03515625 16.6171875 C198.73101303 17.56005615 198.42686981 18.5029248 198.11351013 19.47436523 C197.45114271 21.52599117 196.78625328 23.57680421 196.11914062 25.62689209 C194.27717407 31.2890879 192.45494067 36.95765059 190.62890625 42.625 C190.24574249 43.81229706 189.86257874 44.99959412 189.46780396 46.22286987 C185.42538557 58.75685208 181.45836433 71.3142691 177.5 83.875 C176.75485902 86.23772975 176.00965944 88.60044102 175.2644043 90.96313477 C173.89332126 95.31026028 172.52250534 99.65746984 171.15198612 104.00477314 C168.22652288 113.2840154 165.29732031 122.56207508 162.3671875 131.83984375 C162.12502251 132.60662193 161.88285751 133.37340012 161.63335419 134.163414 C160.38768451 138.1075906 159.14197104 142.05175336 157.89624023 145.99591064 C155.59292041 153.28862264 153.29000474 160.58146226 150.98705292 167.87429047 C149.69027796 171.98081462 148.39347752 176.08733073 147.09667969 180.19384766 C146.57873523 181.83400468 146.06079089 183.47416175 145.54284668 185.11431885 C142.48059102 194.81146178 142.48059102 194.81146178 141.72594166 197.20118427 C141.22483694 198.7880162 140.72373258 200.37484825 140.22262859 201.96168041 C138.97503185 205.91240899 137.72742877 209.86313558 136.47981262 213.81385803 C134.24181413 220.90076337 132.00385941 227.98768251 129.76614475 235.07467747 C128.52251375 239.01333669 127.27884489 242.95198397 126.03515625 246.890625 C125.78871557 247.67108122 125.54227489 248.45153744 125.28836632 249.25564384 C121.68606105 260.66356417 118.08156582 272.070791 114.47594261 283.47766304 C109.66592464 298.69486112 104.85902678 313.9130383 100.0587616 329.13331604 C99.82751681 329.8665273 99.59627203 330.59973856 99.35801983 331.35516834 C98.89967674 332.80844362 98.44133889 334.26172055 97.98300648 335.7149992 C96.5053912 340.39958267 95.02568179 345.08349939 93.54492188 349.76708984 C91.74141138 355.47217218 89.94256799 361.17870165 88.14797974 366.88659668 C87.52086206 368.87859644 86.89209064 370.87007654 86.26144409 372.86096191 C75.64022487 403.98968791 75.64022487 403.98968791 81.18359375 435.328125 C88.06468901 445.54255536 99.53625198 448.64691488 111 451 C116.35751442 451.77485058 121.56463612 452.14344075 126.98096466 452.12304783 C127.74658683 452.12420167 128.51220899 452.12535552 129.30103183 452.12654433 C131.85732633 452.12918365 134.4135574 452.12471106 136.96984863 452.12025452 C138.82466379 452.12069077 140.67947888 452.12156667 142.53429365 452.12284368 C147.62413181 452.12507805 152.7139489 452.1210818 157.80378437 452.11606562 C163.29517427 452.11174615 168.78656298 452.11320861 174.2779541 452.1139679 C183.78984356 452.11449218 193.30172616 452.11135534 202.81361389 452.10573006 C216.56619856 452.09760214 230.31877992 452.09499851 244.07136673 452.09374207 C266.38416813 452.09155358 288.69696633 452.08490759 311.00976562 452.07543945 C332.6842446 452.0662528 354.35872259 452.05917027 376.03320312 452.05493164 C377.03563038 452.05473435 377.03563038 452.05473435 378.0583087 452.05453308 C385.43554026 452.0530837 392.81277182 452.05169187 400.1900034 452.05032361 C455.79333812 452.03995733 511.39666889 452.02234453 567 452 C566.70049239 453.56603568 566.3970842 455.13132559 566.09210205 456.69630432 C565.83930922 458.00393156 565.83930922 458.00393156 565.58140945 459.3379755 C564.6385947 463.65471985 563.22725296 467.78917863 561.796875 471.96484375 C561.48293793 472.89821564 561.16900085 473.83158752 560.84555054 474.79324341 C560.17080565 476.79761744 559.49339262 478.80109494 558.8135376 480.80374146 C556.9801116 486.20600876 555.16751205 491.61527614 553.3515625 497.0234375 C552.98171234 498.12307327 552.61186218 499.22270905 552.23080444 500.35566711 C548.79833725 510.57073142 545.44820803 520.81145901 542.125 531.0625 C540.98333467 534.58081414 539.84129536 538.09900685 538.69921875 541.6171875 C538.40789566 542.51489868 538.11657257 543.41260986 537.81642151 544.33752441 C533.52742376 557.54628056 529.19752274 570.7417138 524.87188721 583.93850708 C519.96161326 598.91928922 515.07635135 613.90802882 510.20532227 628.90161133 C509.6005184 630.76295584 508.99570331 632.62429671 508.39087677 634.48563385 C506.92712204 638.99038062 505.46351818 643.49517637 504 648 C444.72001 648.51058223 385.44001226 649.02025984 326.16000409 649.52872908 C319.15582298 649.58880708 312.15164194 649.64889351 305.14746094 649.70898438 C304.10200414 649.71795343 304.10200414 649.71795343 303.035427 649.72710368 C280.47637175 649.92064354 257.91732133 650.11473916 235.35827336 650.30912539 C211.50191875 650.51468719 187.64555873 650.71961061 163.78919291 650.92386818 C149.50934479 651.0461523 135.22950119 651.16894079 120.94966301 651.29238176 C111.14730209 651.37706868 101.34493585 651.46111966 91.54256526 651.54467916 C85.89364042 651.59285147 80.24471827 651.64129592 74.59580231 651.69049835 C69.41111046 651.73565113 64.22641232 651.77999475 59.04170832 651.8237288 C57.17864355 651.83958091 55.31558116 651.8557151 53.45252171 651.8721807 C44.04203022 651.95518798 34.6318044 652.01611395 25.22092819 652.02804565 C24.40920043 652.02996324 23.59747267 652.03188082 22.7611471 652.03385651 C-21.81306435 652.04287257 -71.14596097 644.01851988 -106 614 C-106.9384375 613.22269531 -107.876875 612.44539062 -108.84375 611.64453125 C-134.87287895 589.23462107 -147.61675838 555.65587783 -150.77294922 522.11230469 C-154.37337675 472.75934757 -140.24643112 427.14646854 -124.69775391 381.04052734 C-121.65451296 372.01254817 -118.63970536 362.97503967 -115.625 353.9375 C-115.30833374 352.9885083 -114.99166748 352.0395166 -114.66540527 351.06176758 C-109.23996801 334.795769 -103.90627795 318.50115089 -98.61199951 302.19206238 C-98.17564178 300.84788994 -98.17564178 300.84788994 -97.73046875 299.4765625 C-97.43585754 298.56896683 -97.14124634 297.66137115 -96.83770752 296.72627258 C-92.91328626 284.64383062 -88.95450869 272.57261932 -85 260.5 C-79.65230169 244.17131912 -74.3138355 227.83973304 -69 211.5 C-63.29993038 193.97261966 -57.57004191 176.45508609 -51.83398438 158.93945312 C-46.59645886 142.94519453 -41.37269345 126.94656967 -36.16802979 110.94158936 C-32.64067345 100.09565791 -29.10358331 89.25296696 -25.5546875 78.4140625 C-25.16750549 77.23152893 -24.78032349 76.04899536 -24.38140869 74.83062744 C-22.5025937 69.09316149 -20.62294387 63.35597047 -18.7421875 57.61914062 C-12.45416029 38.42563109 -6.23106419 19.21244791 0 0 Z " fill="#E60000" transform="translate(244,44)"/>
<path d="M0 0 C1.30632385 -0.00101212 1.30632385 -0.00101212 2.63903809 -0.00204468 C22.72678543 0.02268027 40.88631787 2.66920105 60.1875 8.25 C61.55188113 12.67226776 60.36305896 15.96269639 59 20.25 C58.73372803 21.10754883 58.46745605 21.96509766 58.19311523 22.84863281 C57.20749116 25.98780925 56.19902957 29.11907515 55.1875 32.25 C54.77922385 33.52276304 54.37102388 34.79555051 53.96289062 36.06835938 C46.60293522 58.95518442 38.40124698 81.4831012 29.82763672 103.94042969 C28.3993187 107.68532063 26.99350076 111.43817842 25.59765625 115.1953125 C25.23317383 116.17121338 24.86869141 117.14711426 24.49316406 118.15258789 C23.86490136 119.83521378 23.24010275 121.51914071 22.62011719 123.20483398 C20.86979267 127.84924395 18.7523861 131.99754178 16.1875 136.25 C14.90875 135.97285156 13.63 135.69570312 12.3125 135.41015625 C10.60420477 135.04409299 8.89586927 134.67821757 7.1875 134.3125 C6.34832031 134.13009766 5.50914062 133.94769531 4.64453125 133.75976562 C-31.36354413 126.08362552 -66.95353794 133.79536975 -97.65234375 153.69140625 C-120.43516023 169.06655976 -144.96974818 194.6677022 -150.45361328 222.53955078 C-153.7665352 247.55999921 -151.11215784 274.58178399 -136.7265625 295.875 C-130.50672082 303.59268111 -122.75475056 307.686726 -113.0625 309.0625 C-99.85243209 310.01184739 -86.84046891 305.52732095 -76.71875 297.07421875 C-72.05166708 292.60797341 -69.73852654 288.4081028 -67.8125 282.25 C-68.84503906 282.20101563 -69.87757813 282.15203125 -70.94140625 282.1015625 C-80.03810194 281.64577816 -89.11228668 281.02588072 -98.1875 280.25 C-99.17951416 280.1670166 -100.17152832 280.0840332 -101.19360352 279.99853516 C-102.12744873 279.91651855 -103.06129395 279.83450195 -104.0234375 279.75 C-104.85149902 279.6778125 -105.67956055 279.605625 -106.53271484 279.53125 C-108.69502865 279.26449207 -110.71427615 278.82832182 -112.8125 278.25 C-110.18786778 268.81519222 -106.81934185 259.64369005 -103.5 250.4375 C-103.04737289 249.17882111 -103.04737289 249.17882111 -102.58560181 247.89471436 C-97.83072678 234.68116364 -92.96131528 221.51236782 -88 208.375 C-87.54093765 207.15627701 -87.54093765 207.15627701 -87.07260132 205.91293335 C-86.21186114 203.63079057 -85.34705409 201.35024119 -84.48046875 199.0703125 C-84.22382446 198.38992416 -83.96718018 197.70953583 -83.70275879 197.00852966 C-81.9282374 192.3657374 -81.9282374 192.3657374 -80.8125 191.25 C-79.36884684 191.13768943 -77.91984125 191.09324574 -76.47192383 191.07641602 C-75.53764557 191.06284561 -74.60336731 191.04927521 -73.64077759 191.03529358 C-72.6107663 191.02493576 -71.580755 191.01457794 -70.51953125 191.00390625 C-68.29906934 190.97220979 -66.07861047 190.94029914 -63.8581543 190.90820312 C-62.67925629 190.89281494 -61.50035828 190.87742676 -60.28573608 190.86157227 C-40.84343384 190.60094768 -21.42366506 190.1483381 -2 189.25 C-1.05095795 189.20612152 -0.10191589 189.16224304 0.87588501 189.11703491 C5.37040611 188.90768672 9.86469372 188.69380199 14.35888672 188.47753906 C21.0919767 188.15619273 27.8268514 187.88671333 34.5625 187.625 C35.57932861 187.58503906 36.59615723 187.54507813 37.64379883 187.50390625 C39.82500071 187.41845425 42.0062442 187.33406463 44.1875 187.25 C46.5424554 194.79302973 48.51493836 202.27669028 49.875 210.0625 C49.99399658 210.7423999 50.11299316 211.4222998 50.2355957 212.12280273 C50.57720331 214.16235036 50.89069645 216.20346419 51.1875 218.25 C51.33324463 219.25474365 51.33324463 219.25474365 51.48193359 220.27978516 C55.8583152 254.43441865 49.54651923 289.56040417 34.1875 320.25 C33.83429688 320.97123047 33.48109375 321.69246094 33.1171875 322.43554688 C28.03226265 332.7608709 22.17456102 342.1121987 15.1875 351.25 C14.18589844 352.57064453 14.18589844 352.57064453 13.1640625 353.91796875 C2.11713659 368.09861446 -10.62013812 381.23200255 -24.8125 392.25 C-25.33344238 392.66330566 -25.85438477 393.07661133 -26.39111328 393.50244141 C-48.60305294 411.04373857 -73.84836979 422.27852141 -100.8125 430.25 C-100.8125 430.58 -100.8125 430.91 -100.8125 431.25 C-108.31341836 432.60064768 -115.55570078 433.40979578 -123.1640625 433.3359375 C-123.93858765 433.33193939 -124.71311279 433.32794128 -125.5111084 433.32382202 C-133.33870877 433.27147107 -141.1646288 433.13338781 -148.98974609 432.93261719 C-150.53816407 432.89420783 -152.08667493 432.85937654 -153.63525391 432.828125 C-162.32243274 432.65273716 -170.93274544 432.25471548 -179.57421875 431.31640625 C-180.30833984 431.23770294 -181.04246094 431.15899963 -181.79882812 431.07791138 C-188.47758503 430.29426052 -194.49020046 428.45353762 -200.8125 426.25 C-202.45827592 425.7339256 -204.10554012 425.2225841 -205.75390625 424.71484375 C-222.0495319 419.62431319 -235.4787604 413.11381389 -248.8125 402.25 C-249.97845703 401.33154297 -249.97845703 401.33154297 -251.16796875 400.39453125 C-277.31135546 378.6932067 -288.42310073 343.14773251 -291.63204956 310.50537109 C-292.22929355 303.04067982 -292.2043218 295.54624743 -292.1875 288.0625 C-292.18695618 287.14647003 -292.18641235 286.23044006 -292.18585205 285.28665161 C-292.14165193 268.99678445 -290.95929358 253.2704815 -287.8125 237.25 C-287.60882813 236.2074707 -287.40515625 235.16494141 -287.1953125 234.09082031 C-277.25613947 185.17720487 -255.23030318 138.45504595 -221.1171875 101.73828125 C-219.11023803 99.57145615 -217.17026718 97.36826143 -215.25 95.125 C-208.98555441 87.93412232 -202.12169239 81.36609125 -194.8125 75.25 C-194.2673877 74.79109375 -193.72227539 74.3321875 -193.16064453 73.859375 C-183.43704684 65.70360124 -173.45536902 58.16494449 -162.8125 51.25 C-162.14621582 50.81510254 -161.47993164 50.38020508 -160.79345703 49.93212891 C-120.93800419 24.16014468 -75.89828416 7.35009711 -28.8125 1.25 C-28.11745361 1.15428711 -27.42240723 1.05857422 -26.70629883 0.95996094 C-17.8465461 -0.10584525 -8.91031823 0.00619501 0 0 Z " fill="#020202" transform="translate(785.8125,33.75)"/>
<path d="M0 0 C5.65297056 0.0104038 11.30594588 0.01483338 16.95892334 0.01983643 C27.96414381 0.03042132 38.96934369 0.04738806 49.97454834 0.06866455 C48.0549892 7.3603508 45.91666154 14.53809669 43.53007507 21.68969727 C43.19563261 22.69967246 42.86119015 23.70964766 42.51661307 24.75022817 C41.40507461 28.10438837 40.28932886 31.45713272 39.17352295 34.80987549 C38.37135803 37.22727655 37.56942319 39.64475397 36.7677002 42.06230164 C34.36838897 49.2938183 31.96402466 56.52364761 29.5587779 63.75319183 C28.42150272 67.17200611 27.28487646 70.59103611 26.14819527 74.01004791 C22.36132675 85.39984086 18.57313869 96.7891934 14.78070736 108.17713547 C14.53851661 108.90439841 14.29632586 109.63166135 14.046796 110.38096257 C13.80407421 111.10981995 13.56135242 111.83867733 13.31127542 112.58962131 C12.81955449 114.06619603 12.32783622 115.54277165 11.83612061 117.01934814 C11.59221919 117.75175757 11.34831777 118.48416699 11.0970254 119.23877063 C7.15520528 131.07645188 3.2225504 142.91715598 -0.70617909 154.75918743 C-4.75510679 166.9630449 -8.81209068 179.16420077 -12.87684244 191.36279702 C-15.15263928 198.19324743 -17.42510978 205.02476187 -19.68858528 211.85930634 C-21.82197839 218.30095483 -23.96643064 224.73883406 -26.11793518 231.17445564 C-26.89950561 233.51791425 -27.67758254 235.86254183 -28.45161247 238.20850182 C-41.05189642 276.37509046 -58.47689659 311.01401487 -85.86529541 340.7210083 C-87.29640715 342.2763395 -88.70582829 343.85193367 -90.09185791 345.4475708 C-125.5717805 386.15473797 -172.21560615 408.98924947 -225.02545166 416.06866455 C-225.84561768 416.18355225 -226.66578369 416.29843994 -227.51080322 416.41680908 C-256.35687712 420.1101108 -288.84147496 416.70354229 -312.65045166 398.69366455 C-314.11751965 397.49595129 -315.57585575 396.28746612 -317.02545166 395.06866455 C-317.7769751 394.46280518 -318.52849854 393.8569458 -319.30279541 393.23272705 C-338.31137499 377.31101082 -347.87351002 351.65519804 -350.27593994 327.55596924 C-354.579586 276.19597337 -334.94462273 224.18970066 -302.02545166 185.06866455 C-296.93183244 179.16389845 -291.53867074 173.58188363 -286.02545166 168.06866455 C-284.88849854 166.86210205 -284.88849854 166.86210205 -283.72857666 165.63116455 C-275.89626745 157.4496441 -267.19850296 150.6873023 -258.02545166 144.06866455 C-257.39091064 143.6107251 -256.75636963 143.15278564 -256.1026001 142.68096924 C-215.10018292 113.46210995 -162.09651825 99.89555936 -112.02545166 103.06866455 C-110.68828579 103.38627488 -109.35416136 103.71735354 -108.02545166 104.06866455 C-107.79438721 102.91664551 -107.56332275 101.76462646 -107.32525635 100.57769775 C-105.69281048 93.25084523 -103.41007845 86.10149801 -101.22857666 78.9241333 C-100.7522709 77.3483194 -100.27626354 75.77241528 -99.80053711 74.19642639 C-98.54973983 70.05554972 -97.29505869 65.91586017 -96.03948975 61.77642822 C-94.78258028 57.63037408 -93.52908313 53.48328893 -92.27545166 49.33624268 C-90.8268136 44.54429268 -89.37768584 39.75249544 -87.92523193 34.96170044 C-85.94210586 28.41909075 -83.96235038 21.87584964 -82.01959229 15.32110596 C-81.73622009 14.36641922 -81.4528479 13.41173248 -81.16088867 12.42811584 C-80.66230444 10.74413438 -80.16635156 9.05937036 -79.67370605 7.37364197 C-78.13533572 2.17854861 -78.13533572 2.17854861 -77.02545166 1.06866455 C-73.07010693 0.67785793 -69.08275263 0.63605828 -65.11138916 0.5100708 C-63.8028598 0.46781876 -62.49433044 0.42556671 -61.14614868 0.3820343 C-40.77206644 -0.21716117 -20.38037048 -0.04159642 0 0 Z M-213.83795166 243.31866455 C-220.24760308 252.14311487 -222.21977302 261.26289985 -221.02545166 272.06866455 C-220.33202061 274.87987152 -219.56265221 276.56359699 -218.02545166 279.06866455 C-211.37011987 281.28710848 -202.46195117 281.22320661 -195.99029541 278.29522705 C-184.53019824 271.14121013 -177.26832519 260.07639191 -174.02545166 247.06866455 C-173.38562906 242.58392669 -172.94444825 238.28383547 -174.97857666 234.11553955 C-177.4580935 230.88275177 -180.09803899 229.00376281 -184.02545166 228.06866455 C-196.06214147 226.6525834 -206.46572948 234.55042582 -213.83795166 243.31866455 Z " fill="#020202" transform="translate(1825.0254516601563,45.93133544921875)"/>
<path d="M0 0 C0.97718994 0.24943359 0.97718994 0.24943359 1.97412109 0.50390625 C30.33871181 7.95918928 54.91911132 24.58370834 69.93017578 50.10449219 C85.73871472 78.11396191 87.47470369 109.64703204 79.45727539 140.35961914 C76.47013759 151.01938006 71.88774317 161.08967937 67 171 C66.51789062 171.99515625 66.03578125 172.9903125 65.5390625 174.015625 C63.47462999 176.67738062 62.3178987 176.55425128 59 177 C56.377431 177.11540532 53.7788917 177.18457328 51.15576172 177.20532227 C50.3728221 177.21521903 49.58988249 177.2251158 48.78321743 177.23531246 C46.16540483 177.26706117 43.5475768 177.29185357 40.9296875 177.31640625 C39.05388565 177.33714585 37.17808714 177.35819006 35.30229187 177.3795166 C30.21841414 177.43567533 25.13449124 177.48496626 20.05052567 177.53242874 C16.88074462 177.5624456 13.71098699 177.59429981 10.54122925 177.62667847 C-35.3056926 178.0914392 -81.1512871 178.10958189 -127 178 C-127.03223707 180.22907085 -127.05517413 182.45827741 -127.07421875 184.6875 C-127.08799561 185.92886719 -127.10177246 187.17023438 -127.1159668 188.44921875 C-126.86617698 196.09752006 -124.44103077 201.68262902 -119 207 C-111.3588142 212.35741566 -104.11551296 212.69117626 -95 212 C-84.42500363 209.96035082 -72.33403201 204.85645336 -63.72265625 198.25390625 C-62 197 -62 197 -59 197 C-52.96254707 208.29661977 -47.10421549 219.65291834 -41.64624023 231.24169922 C-38.59258844 237.71300715 -35.45477027 244.13556895 -32.26953125 250.54296875 C-31.01434687 253.07968345 -29.76019474 255.61690586 -28.50637817 258.15429688 C-27.67123863 259.83816733 -26.83196342 261.51999319 -25.98849487 263.19970703 C-24.79923316 265.56935427 -23.6248437 267.94585948 -22.453125 270.32421875 C-22.08915115 271.03990524 -21.72517731 271.75559174 -21.35017395 272.4929657 C-18.93890279 277.43683102 -18.93890279 277.43683102 -19.22503662 280.07429504 C-20.59957727 283.48988835 -24.01837508 284.93888905 -27.0625 286.75 C-27.77913818 287.18538086 -28.49577637 287.62076172 -29.23413086 288.06933594 C-58.17795773 305.38566894 -90.30229572 314.82278762 -124 316 C-125.33804687 316.061875 -125.33804687 316.061875 -126.703125 316.125 C-161.94941451 317.01169911 -197.12225164 306.35080873 -223.546875 282.72265625 C-242.03461377 265.07244927 -251.18328753 239.55336993 -252.25390625 214.375 C-253.06470393 178.4904135 -241.93760258 136.2938655 -221 107 C-220.38382813 106.030625 -219.76765625 105.06125 -219.1328125 104.0625 C-210.81076608 91.24968891 -199.9219123 80.06486438 -188.39453125 70.0859375 C-185.67019109 67.71269501 -183.06409414 65.2308697 -180.4375 62.75 C-173.07809899 55.9224731 -165.05666513 49.97102688 -157 44 C-156.10692139 43.32904297 -156.10692139 43.32904297 -155.19580078 42.64453125 C-112.55102253 10.64556344 -53.9234138 -13.88681892 0 0 Z M-90.5625 114.6875 C-92.24911737 117.40075404 -92.50897947 118.86129326 -92 122 C-89.45726278 124.54273722 -88.55560561 124.2526488 -85.03125 124.25878906 C-83.99677734 124.26509338 -82.96230469 124.27139771 -81.89648438 124.27789307 C-80.77564453 124.2738446 -79.65480469 124.26979614 -78.5 124.265625 C-77.35337891 124.26753845 -76.20675781 124.2694519 -75.02539062 124.27142334 C-72.59765402 124.27278622 -70.16991016 124.26908267 -67.7421875 124.26074219 C-64.01545927 124.25004438 -60.28921314 124.26063431 -56.5625 124.2734375 C-54.20833226 124.27211592 -51.85416483 124.26955357 -49.5 124.265625 C-47.81874023 124.27169769 -47.81874023 124.27169769 -46.10351562 124.27789307 C-44.55180664 124.26843658 -44.55180664 124.26843658 -42.96875 124.25878906 C-42.05544922 124.25719788 -41.14214844 124.25560669 -40.20117188 124.25396729 C-37.79283373 124.20710017 -37.79283373 124.20710017 -36 122 C-36.22992847 115.56200295 -37.86411445 109.65060527 -41 104 C-47.29720604 98.27526724 -55.62536326 97.39660254 -63.84765625 97.5625 C-74.94881126 99.10318074 -83.13738778 106.90018718 -90.5625 114.6875 Z " fill="#020202" transform="translate(2075,148)"/>
<path d="M0 0 C2.71141121 0.01068728 5.42215408 0.0000584 8.13354492 -0.01269531 C35.03029584 -0.0334398 35.03029584 -0.0334398 44.9128418 3.26074219 C42.57618352 13.67151221 39.23875652 23.68772072 35.84643555 33.78808594 C35.24655925 35.58464462 34.647044 37.38132388 34.04786682 39.17811584 C32.79230287 42.94022384 31.53382159 46.70133778 30.27294922 50.46166992 C28.68795289 55.18873033 27.10798811 59.9174509 25.52995872 64.64684105 C18.44042916 85.89203077 11.27643614 107.10881947 3.9128418 128.26074219 C2.80223389 128.05002579 2.80223389 128.05002579 1.66918945 127.83505249 C0.68998535 127.6524588 -0.28921875 127.46986511 -1.2980957 127.28173828 C-2.74901611 127.00914688 -2.74901611 127.00914688 -4.22924805 126.73104858 C-17.22950065 124.59168744 -29.72407699 125.5521226 -40.7121582 133.26074219 C-70.49578671 158.48673359 -77.32409032 211.48268685 -87.14916992 247.35620117 C-90.91295851 261.08169557 -94.75989391 274.76563314 -98.98168945 288.35839844 C-99.34985275 289.54517685 -99.71801605 290.73195526 -100.09733582 291.95469666 C-101.93152466 297.79523568 -103.86598675 303.5558249 -106.0871582 309.26074219 C-118.34167495 309.48759156 -130.5546664 308.79933485 -142.7902832 308.20214844 C-145.08183902 308.09225249 -147.37340414 307.98255023 -149.66497803 307.87303162 C-154.44577804 307.64384341 -159.22646472 307.41245051 -164.00708008 307.17944336 C-170.11845628 306.88173527 -176.23007436 306.58937335 -182.34178543 306.29863071 C-187.06547065 306.07336003 -191.789021 305.84535779 -196.5125351 305.61652946 C-198.76583695 305.50767625 -201.0191784 305.39963913 -203.27256012 305.29245186 C-206.42346547 305.14214136 -209.57417173 304.98816901 -212.72485352 304.83325195 C-213.64454926 304.79009354 -214.564245 304.74693512 -215.5118103 304.70246887 C-221.07106416 304.42442561 -226.56054745 303.92671205 -232.0871582 303.26074219 C-230.36027353 298.02862473 -228.5855407 292.81715527 -226.7668457 287.61621094 C-220.21767395 268.71224323 -214.52567905 249.61535825 -209.1368866 230.35083389 C-199.84289132 197.12796741 -190.54577199 164.08378473 -177.0871582 132.26074219 C-176.69431641 131.33148926 -176.30147461 130.40223633 -175.89672852 129.44482422 C-165.66233883 105.49914435 -153.31642968 81.98275932 -136.0871582 62.26074219 C-135.41942383 61.48472656 -134.75168945 60.70871094 -134.0637207 59.90917969 C-131.78243382 57.31493648 -129.450047 54.78091306 -127.0871582 52.26074219 C-126.62212891 51.76171387 -126.15709961 51.26268555 -125.67797852 50.74853516 C-112.94804857 37.19637695 -98.61728659 26.73314229 -82.0871582 18.26074219 C-81.01079102 17.70773438 -79.93442383 17.15472656 -78.82543945 16.58496094 C-67.08017663 10.8818032 -54.61718748 6.89033935 -41.8996582 4.01074219 C-41.23683838 3.85976074 -40.57401855 3.7087793 -39.89111328 3.55322266 C-26.58297858 0.72007361 -13.55615562 -0.06331807 0 0 Z " fill="#020202" transform="translate(2374.087158203125,149.7392578125)"/>
</svg>
